name Run_300 02_newCOP3_v24.mot
datacolumns 19
datarows 83
range 0.225 0.310417
DataType=double
version=3
OpenSimVersion=4.3-2021-08-27-4bc7ad9
endheader
time	R_ground_force_vx	R_ground_force_vy	R_ground_force_vz	R_ground_force_px	R_ground_force_py	R_ground_force_pz	L_ground_force_vx	L_ground_force_vy	L_ground_force_vz	L_ground_force_px	L_ground_force_py	L_ground_force_pz	R_ground_torque_x	R_ground_torque_y	R_ground_torque_z	L_ground_torque_x	L_ground_torque_y	L_ground_torque_z
0.225	0	0	0	0	0	0	167.963669	957.523315	-9.005284	0.656314	0	-0.371937	0	0	0	-0	5.449968	-0
0.226042	0	0	0	0	0	0	168.033875	944.512695	-9.953002	0.654298	0	-0.372158	0	0	0	-0	5.557652	-0
0.227083	0	0	0	0	0	0	168.090195	931.08667	-10.909975	0.652182	0	-0.372382	0	0	0	-0	5.657201	-0
0.228125	0	0	0	0	0	0	168.12616	917.311096	-11.864632	0.649977	0	-0.372604	0	0	0	-0	5.748264	-0
0.229167	0	0	0	0	0	0	168.135773	903.24054	-12.805757	0.647696	0	-0.372819	0	0	0	-0	5.830522	-0
0.230208	0	0	0	0	0	0	168.113831	888.9223019999999	-13.722671	0.645348	0	-0.373023	0	0	0	-0	5.903682	-0
0.23125	0	0	0	0	0	0	168.056259	874.3984380000001	-14.605403	0.642946	0	-0.373211	0	0	0	-0	5.967486	-0
0.232292	0	0	0	0	0	0	167.960114	859.707031	-15.44484	0.640498	0	-0.373378	0	0	0	-0	6.021705	-0
0.233333	0	0	0	0	0	0	167.823654	844.882385	-16.232864	0.6380130000000001	0	-0.37352	0	0	0	-0	6.066144	-0
0.234375	0	0	0	0	0	0	167.64621	829.95575	-16.962465	0.635502	0	-0.373634	0	0	0	-0	6.100643	-0
0.235417	0	0	0	0	0	0	167.428085	814.954895	-17.627821	0.63297	0	-0.373717	0	0	0	-0	6.125077	-0
0.236458	0	0	0	0	0	0	167.170212	799.904541	-18.224361	0.630426	0	-0.373767	0	0	0	-0	6.139354	-0
0.2375	0	0	0	0	0	0	166.873947	784.826172	-18.748796	0.627875	0	-0.373781	0	0	0	-0	6.14342	-0
0.238542	0	0	0	0	0	0	166.54068	769.737976	-19.19912	0.625323	0	-0.373758	0	0	0	-0	6.137255	-0
0.239583	0	0	0	0	0	0	166.171524	754.655273	-19.574581	0.622772	0	-0.373699	0	0	0	-0	6.120872	-0
0.240625	0	0	0	0	0	0	165.767029	739.590332	-19.875639	0.620228	0	-0.373603	0	0	0	-0	6.094322	-0
0.241667	0	0	0	0	0	0	165.326813	724.552612	-20.103884	0.617691	0	-0.373472	0	0	0	-0	6.057685	-0
0.242708	0	0	0	0	0	0	164.849487	709.5491940000001	-20.261936	0.615164	0	-0.373307	0	0	0	-0	6.011075	-0
0.24375	0	0	0	0	0	0	164.332352	694.584961	-20.353338	0.612646	0	-0.373111	0	0	0	-0	5.954639	-0
0.244792	0	0	0	0	0	0	163.771469	679.66272	-20.382425	0.610139	0	-0.372887	0	0	0	-0	5.888551	-0
0.245833	0	0	0	0	0	0	163.161591	664.783875	-20.354172	0.607642	0	-0.372638	0	0	0	-0	5.813013	-0
0.246875	0	0	0	0	0	0	162.496262	649.948792	-20.274061	0.605154	0	-0.372369	0	0	0	-0	5.728255	-0
0.247917	0	0	0	0	0	0	161.768051	635.156982	-20.147913	0.602673	0	-0.372084	0	0	0	-0	5.634531	-0
0.248958	0	0	0	0	0	0	160.968719	620.407654	-19.98175	0.600198	0	-0.371788	0	0	0	-0	5.532115	-0
0.25	0	0	0	0	0	0	160.089554	605.700134	-19.781635	0.597728	0	-0.371485	0	0	0	-0	5.421306	-0
0.251042	0	0	0	0	0	0	159.121658	591.034058	-19.553541	0.595261	0	-0.371181	0	0	0	-0	5.302417	-0
0.252083	0	0	0	0	0	0	158.05629	576.409973	-19.303209	0.592795	0	-0.370881	0	0	0	-0	5.175781	-0
0.253125	0	0	0	0	0	0	156.885162	561.829285	-19.036041	0.590328	0	-0.370589	0	0	0	-0	5.041744	-0
0.254167	0	0	0	0	0	0	155.600754	547.2945559999999	-18.756992	0.587859	0	-0.37031	0	0	0	-0	4.900663	-0
0.255208	0	0	0	0	0	0	154.196579	532.809998	-18.470484	0.585386	0	-0.370048	0	0	0	-0	4.752908	-0
0.25625	0	0	0	0	0	0	152.667389	518.381226	-18.180332	0.582908	0	-0.369807	0	0	0	-0	4.598855	-0
0.257292	0	0	0	0	0	0	151.009293	504.015411	-17.889708	0.580425	0	-0.369589	0	0	0	-0	4.438888	-0
0.258333	0	0	0	0	0	0	149.219986	489.721436	-17.601093	0.577935	0	-0.369398	0	0	0	-0	4.273396	-0
0.259375	0	0	0	0	0	0	147.298615	475.509735	-17.316277	0.575439	0	-0.369235	0	0	0	-0	4.10277	-0
0.260417	0	0	0	0	0	0	145.245972	461.392151	-17.036354	0.5729379999999999	0	-0.369102	0	0	0	-0	3.927404	-0
0.261458	0	0	0	0	0	0	143.064255	447.381989	-16.761755	0.5704320000000001	0	-0.368998	0	0	0	-0	3.747692	-0
0.2625	0	0	0	0	0	0	140.757172	433.493561	-16.492271	0.567925	0	-0.368924	0	0	0	-0	3.564027	-0
0.263542	0	0	0	0	0	0	138.329681	419.742126	-16.227114	0.565418	0	-0.368878	0	0	0	-0	3.3768	-0
0.264583	0	0	0	0	0	0	135.787949	406.143616	-15.964974	0.562916	0	-0.368858	0	0	0	-0	3.186398	-0
0.265625	0	0	0	0	0	0	133.139175	392.714233	-15.704101	0.560423	0	-0.368862	0	0	0	-0	2.993206	-0
0.266667	0	0	0	0	0	0	130.391525	379.470245	-15.442369	0.557945	0	-0.368886	0	0	0	-0	2.797602	-0
0.267708	0	0	0	0	0	0	127.553902	366.427643	-15.177382	0.555486	0	-0.368926	0	0	0	-0	2.599962	-0
0.26875	0	0	0	0	0	0	124.635918	353.601929	-14.906549	0.553052	0	-0.368978	0	0	0	-0	2.400652	-0
0.269792	0	0	0	0	0	0	121.647736	341.007782	-14.627183	0.550651	0	-0.369037	0	0	0	-0	2.200036	-0
0.270833	0	0	0	0	0	0	118.600021	328.658844	-14.336592	0.548288	0	-0.369096	0	0	0	-0	1.998469	-0
0.271875	0	0	0	0	0	0	115.503799	316.567596	-14.032164	0.545969	0	-0.369151	0	0	0	-0	1.796301	-0
0.272917	0	0	0	0	0	0	112.370377	304.745239	-13.711456	0.5437	0	-0.369195	0	0	0	-0	1.593874	-0
0.273958	0	0	0	0	0	0	109.211266	293.201447	-13.372272	0.541488	0	-0.369222	0	0	0	-0	1.391523	-0
0.275	0	0	0	0	0	0	106.038048	281.944458	-13.012729	0.539337	0	-0.369226	0	0	0	-0	1.189577	-0
0.276042	0	0	0	0	0	0	102.862228	270.981018	-12.631323	0.537253	0	-0.369199	0	0	0	-0	0.988358	-0
0.277083	0	0	0	0	0	0	99.695145	260.316284	-12.226979	0.535241	0	-0.369137	0	0	0	-0	0.788181	-0
0.278125	0	0	0	0	0	0	96.547737	249.953857	-11.799093	0.533304	0	-0.369032	0	0	0	-0	0.589355	-0
0.279167	0	0	0	0	0	0	93.43040499999999	239.895859	-11.347555	0.531448	0	-0.368879	0	0	0	-0	0.392181	-0
0.280208	0	0	0	0	0	0	90.35282100000001	230.142868	-10.872771	0.529675	0	-0.368671	0	0	0	-0	0.196955	-0
0.28125	0	0	0	0	0	0	87.323769	220.694046	-10.375661	0.527989	0	-0.368403	0	0	0	-0	0.003964	-0
0.282292	0	0	0	0	0	0	84.35092899999999	211.547073	-9.857654999999999	0.526392	0	-0.36807	0	0	0	0	-0.186508	0
0.283333	0	0	0	0	0	0	81.440765	202.698288	-9.320665	0.524887	0	-0.367667	0	0	0	0	-0.374186	0
0.284375	0	0	0	0	0	0	78.59839599999999	194.142715	-8.767059	0.523474	0	-0.367191	0	0	0	0	-0.5588	0
0.285417	0	0	0	0	0	0	75.82751500000001	185.874191	-8.199612	0.522154	0	-0.366639	0	0	0	0	-0.740088	0
0.286458	0	0	0	0	0	0	73.130348	177.885483	-7.621449	0.5209279999999999	0	-0.36601	0	0	0	0	-0.917793	0
0.2875	0	0	0	0	0	0	70.507668	170.168411	-7.035993	0.5197929999999999	0	-0.365301	0	0	0	0	-1.091665	0
0.288542	0	0	0	0	0	0	67.958839	162.714005	-6.446888	0.518749	0	-0.364514	0	0	0	0	-1.261461	0
0.289583	0	0	0	0	0	0	65.481956	155.512726	-5.857928	0.5177929999999999	0	-0.36365	0	0	0	0	-1.426944	0
0.290625	0	0	0	0	0	0	63.073959	148.554642	-5.272976	0.516923	0	-0.362712	0	0	0	0	-1.587884	0
0.291667	0	0	0	0	0	0	60.73085	141.82959	-4.695891	0.516135	0	-0.361702	0	0	0	0	-1.744058	0
0.292708	0	0	0	0	0	0	58.447929	135.327454	-4.130445	0.515424	0	-0.360626	0	0	0	0	-1.895251	0
0.29375	0	0	0	0	0	0	56.220047	129.0383	-3.580247	0.514788	0	-0.359487	0	0	0	0	-2.041254	0
0.294792	0	0	0	0	0	0	54.04187	122.952576	-3.048676	0.514221	0	-0.358293	0	0	0	0	-2.181865	0
0.295833	0	0	0	0	0	0	51.908154	117.061302	-2.538808	0.513718	0	-0.357049	0	0	0	0	-2.316892	0
0.296875	0	0	0	0	0	0	49.814011	111.356186	-2.053364	0.513275	0	-0.355761	0	0	0	0	-2.446148	0
0.297917	0	0	0	0	0	0	47.755127	105.82975	-1.594658	0.512885	0	-0.354435	0	0	0	0	-2.569455	0
0.298958	0	0	0	0	0	0	45.727951	100.475471	-1.164558	0.512543	0	-0.353075	0	0	0	0	-2.686643	0
0.3	0	0	0	0	0	0	43.729843	95.287796	-0.764458	0.512245	0	-0.351685	0	0	0	0	-2.797551	0
0.301042	0	0	0	0	0	0	41.75914	90.262253	-0.395259	0.511987	0	-0.350269	0	0	0	0	-2.902023	0
0.302083	0	0	0	0	0	0	39.815186	85.395409	-0.057366	0.511768	0	-0.348826	0	0	0	0	-2.999915	0
0.303125	0	0	0	0	0	0	37.89827	80.684906	0.249306	0.511586	0	-0.347355	0	0	0	0	-3.091089	0
0.304167	0	0	0	0	0	0	36.00956	76.129417	0.525318	0.511447	0	-0.345852	0	0	0	0	-3.175414	0
0.305208	0	0	0	0	0	0	34.150944	71.728561	0.7716769999999999	0.511359	0	-0.344309	0	0	0	0	-3.25277	0
0.30625	0	0	0	0	0	0	32.32489	67.482803	0.989799	0.511335	0	-0.342715	0	0	0	0	-3.323045	0
0.307292	0	0	0	0	0	0	30.53425	63.393356	1.181466	0.511397	0	-0.341055	0	0	0	0	-3.386132	0
0.308333	0	0	0	0	0	0	28.782101	59.462009	1.348771	0.5115769999999999	0	-0.339309	0	0	0	0	-3.441935	0
0.309375	0	0	0	0	0	0	27.071579	55.69096	1.494062	0.511915	0	-0.337454	0	0	0	0	-3.490365	0
0.310417	0	0	0	0	0	0	25.405743	52.08263	1.61988	0.5124649999999999	0	-0.335459	0	0	0	0	-3.531342	0
